<?xml version="1.0" standalone="no"?>
<!DOCTYPE svg PUBLIC "-//W3C//DTD SVG 20010904//EN"
 "http://www.w3.org/TR/2001/REC-SVG-20010904/DTD/svg10.dtd">
<svg version="1.0" xmlns="http://www.w3.org/2000/svg"
 width="512.000000pt" height="512.000000pt" viewBox="0 0 512.000000 512.000000"
 preserveAspectRatio="xMidYMid meet">
<metadata>
Created by potrace 1.16, written by Peter Selinger 2001-2019
</metadata>
<g transform="translate(0.000000,512.000000) scale(0.100000,-0.100000)"
fill="#000000" stroke="none">
<path d="M4040 4540 c-24 -24 -36 -80 -20 -90 6 -4 11 -10 11 -14 -1 -3 2 -6
5 -5 4 0 10 -4 13 -10 6 -10 68 -17 216 -26 33 -2 60 -5 60 -5 0 -1 9 -3 20
-4 58 -8 137 -27 155 -36 10 -6 23 -9 27 -9 19 5 181 -72 213 -100 73 -64 108
-100 103 -105 -4 -3 2 -6 12 -6 10 0 15 -3 12 -7 -4 -3 5 -21 19 -40 14 -18
22 -33 18 -33 -4 0 0 -8 9 -17 8 -10 22 -54 31 -98 16 -83 26 -244 15 -251 -4
-2 -9 -22 -13 -44 -7 -43 -62 -150 -77 -150 -5 0 -9 -7 -9 -15 0 -8 -10 -20
-22 -26 -13 -6 -33 -23 -45 -37 -13 -14 -23 -22 -23 -18 0 4 -10 -2 -22 -14
-12 -11 -27 -20 -32 -20 -6 -1 -29 -9 -51 -20 -22 -11 -47 -19 -56 -20 -8 0
-20 -5 -27 -12 -7 -7 -12 -9 -12 -6 0 4 -24 -1 -54 -12 -30 -10 -57 -16 -60
-13 -3 4 -6 1 -6 -5 0 -6 -11 -9 -24 -6 -14 2 -27 0 -31 -5 -3 -6 -12 -8 -20
-4 -8 3 -23 2 -32 -2 -24 -10 -36 -11 -203 -20 l-145 -7 -133 -71 -134 -72 63
-6 c90 -9 488 -1 509 10 3 2 21 5 40 6 34 4 135 20 175 29 67 15 110 28 129
38 11 7 27 11 34 10 6 -2 12 2 12 8 0 5 3 9 8 9 14 -3 72 23 72 33 0 5 5 6 10
3 6 -3 10 -1 10 4 0 6 3 10 8 9 13 -4 52 13 52 23 0 5 5 9 12 9 7 0 23 12 35
27 13 14 23 24 23 21 0 -3 18 12 40 32 22 20 40 42 40 48 0 6 3 12 8 14 12 5
62 86 62 101 0 7 4 17 9 22 20 23 33 88 37 195 4 108 -11 270 -26 270 -4 0 -7
6 -8 13 0 6 -3 21 -6 32 -2 11 -5 25 -5 32 -1 6 -9 19 -18 29 -10 10 -17 19
-15 21 5 6 -31 68 -47 80 -9 7 -13 13 -9 13 7 0 -114 123 -142 144 -8 6 -24
18 -34 26 -18 13 -19 13 -12 0 4 -8 1 -7 -7 3 -9 10 -22 20 -30 21 -8 1 -22 8
-30 15 -9 7 -22 14 -30 15 -8 1 -26 10 -41 19 -14 10 -41 20 -59 24 -17 3 -38
10 -45 16 -7 5 -15 7 -18 4 -3 -3 -24 1 -45 8 -60 22 -254 46 -348 44 -65 -1
-88 -6 -101 -19z"/>
<path d="M3598 3830 c-48 -9 -114 -52 -132 -87 -44 -86 -43 -164 4 -235 74
-112 222 -127 316 -33 152 153 24 394 -188 355z"/>
<path d="M2170 3794 c-36 -9 -73 -17 -82 -17 -9 -1 -15 -3 -13 -6 3 -2 -15
-16 -38 -31 -89 -56 -188 -201 -262 -381 -51 -125 -66 -192 -72 -314 -8 -168
33 -292 131 -402 25 -27 42 -54 38 -58 -4 -5 -2 -5 4 -2 6 4 29 -2 52 -13 22
-11 59 -24 83 -29 65 -15 214 -13 315 4 48 9 94 13 101 10 8 -2 11 0 8 5 -3 6
0 10 9 10 8 0 -9 24 -40 55 -62 64 -117 170 -135 263 -16 86 -6 257 21 352 39
138 172 391 237 451 15 15 45 38 66 53 37 24 37 25 15 30 -13 3 -84 10 -158
16 -74 6 -153 13 -175 15 -22 2 -69 -3 -105 -11z"/>
<path d="M1057 3618 c2 -5 -8 -8 -23 -8 -93 0 -293 -82 -359 -146 -21 -21 -43
-38 -48 -36 -5 1 -6 -2 -2 -8 8 -13 -19 -52 -30 -42 -5 4 -5 2 -2 -4 3 -6 0
-32 -8 -59 -22 -70 -18 -141 10 -226 25 -74 140 -317 168 -353 14 -19 15 -16
26 32 31 148 120 233 308 297 78 26 74 12 53 175 -8 58 -14 167 -14 242 l-1
136 -42 4 c-22 2 -39 0 -36 -4z"/>
<path d="M3443 2943 c-51 -26 -93 -51 -93 -54 0 -8 104 -35 106 -28 0 2 8 -2
17 -10 10 -7 17 -10 17 -6 0 4 7 2 15 -5 8 -7 22 -10 30 -6 8 3 15 2 15 -2 0
-6 108 -40 150 -47 28 -5 77 -19 90 -26 16 -8 114 -38 140 -43 24 -3 60 -30
60 -44 0 -7 7 -15 15 -18 8 -4 15 -13 15 -20 0 -8 7 -17 15 -20 8 -4 15 -13
15 -20 0 -8 7 -17 15 -20 8 -4 15 -13 15 -20 0 -8 7 -17 15 -20 8 -4 15 -13
15 -20 0 -8 7 -17 15 -20 8 -4 15 -13 15 -20 0 -8 7 -17 15 -20 8 -4 15 -13
15 -20 0 -8 7 -17 15 -20 8 -4 15 -13 15 -20 0 -8 7 -17 15 -20 8 -4 15 -13
15 -20 0 -8 7 -17 15 -20 8 -4 15 -13 15 -20 0 -8 7 -17 15 -20 8 -4 13 -9 10
-14 -2 -4 6 -16 18 -28 32 -30 46 -49 41 -55 -11 -10 29 -30 67 -33 52 -3 79
21 79 73 0 32 -26 71 -212 319 l-213 284 -75 25 c-41 13 -84 26 -95 28 -11 1
-26 6 -32 10 -7 5 -13 6 -13 2 0 -3 -16 2 -36 10 -20 8 -44 15 -54 15 -9 0
-30 6 -46 14 -16 8 -42 17 -59 20 -16 2 -41 8 -55 11 -14 4 -34 9 -45 11 -11
2 -62 -18 -112 -43z"/>
<path d="M3190 2824 c-30 -14 -66 -30 -80 -35 l-24 -10 29 -24 c17 -13 34 -24
38 -25 4 0 13 -4 20 -10 67 -56 113 -90 120 -90 5 0 18 -11 29 -25 11 -14 25
-25 33 -25 7 0 16 -7 19 -16 3 -8 10 -12 16 -9 5 3 10 1 10 -4 0 -6 7 -11 16
-11 8 0 12 -4 9 -10 -3 -5 1 -10 9 -10 9 0 16 -4 16 -8 0 -5 26 -26 58 -48 31
-21 60 -43 64 -49 4 -5 14 -43 23 -85 9 -41 19 -82 22 -90 3 -8 5 -19 4 -23 0
-4 4 -18 11 -30 6 -12 12 -31 13 -42 4 -43 28 -146 36 -151 4 -2 6 -11 2 -19
-3 -9 0 -21 6 -29 6 -7 8 -16 4 -19 -3 -4 -2 -12 3 -19 6 -7 11 -26 13 -43 8
-75 80 -115 130 -72 15 12 26 28 23 35 -2 7 1 12 7 12 11 0 5 46 -12 90 -5 14
-11 40 -13 58 -2 18 -6 38 -11 45 -4 6 -8 18 -9 27 0 8 -6 33 -12 55 -6 22
-16 63 -22 90 -7 28 -15 57 -18 65 -8 21 -7 20 -16 70 -5 25 -11 49 -14 55 -3
5 -7 16 -8 25 -13 86 -11 83 -76 133 -68 52 -151 115 -183 137 -19 14 -46 34
-59 45 -14 11 -41 31 -61 45 -20 14 -49 35 -65 48 -34 27 -32 27 -100 -4z"/>
<path d="M135 2636 c-16 -24 -34 -42 -39 -39 -5 4 -6 1 -3 -4 4 -6 -7 -38 -24
-73 -16 -34 -33 -75 -36 -91 -3 -16 -8 -27 -12 -25 -6 4 -11 -67 -14 -206 -1
-36 1 -64 6 -61 4 2 7 -3 7 -12 0 -28 49 -113 87 -151 20 -20 66 -50 102 -67
63 -30 71 -31 184 -30 65 1 122 5 127 8 6 4 4 15 -4 28 -45 70 -59 227 -31
346 l15 64 -42 35 c-85 71 -247 246 -283 306 -9 14 -14 10 -40 -28z"/>
<path d="M1455 2560 c9 -16 13 -30 10 -30 -3 0 4 -19 16 -42 12 -23 23 -51 24
-62 2 -12 11 -41 20 -66 21 -59 22 -64 24 -73 4 -33 38 -70 85 -92 29 -14 58
-25 64 -25 6 0 12 -4 14 -8 6 -14 133 -65 162 -65 33 0 76 44 76 79 0 44 -24
60 -220 148 -22 10 -36 24 -37 35 -1 11 -14 48 -28 83 -15 35 -28 72 -29 83
-2 11 -4 23 -5 28 0 4 -16 7 -34 7 -18 0 -59 7 -90 15 -32 8 -60 15 -63 15 -2
0 2 -13 11 -30z"/>
<path d="M1220 2474 c-19 -7 -52 -13 -72 -13 -36 -1 -44 -9 -38 -36 1 -5 3
-35 5 -65 14 -239 21 -275 65 -315 11 -10 20 -15 20 -12 0 3 11 -4 24 -16 33
-31 69 -57 79 -57 4 0 6 -4 2 -9 -3 -5 4 -12 15 -16 11 -3 20 -11 20 -16 0 -6
16 -17 36 -25 41 -17 86 -6 100 24 19 44 11 74 -32 120 -24 25 -44 42 -44 38
0 -5 -15 5 -32 23 -18 18 -43 42 -55 54 -13 12 -23 28 -24 37 0 8 -2 26 -4 40
-2 14 -7 70 -10 125 -4 55 -11 105 -16 111 -5 6 -6 14 -2 17 8 8 8 8 -37 -9z"/>
<path d="M1089 1513 c-17 -54 -47 -90 -91 -112 l-39 -19 53 -46 c151 -133 394
-269 548 -305 102 -25 241 -27 324 -6 32 8 63 12 69 8 7 -3 9 -3 5 1 -6 8 117
78 139 79 7 0 10 4 7 8 -5 9 30 31 40 24 3 -3 4 -2 1 2 -3 4 16 28 42 55 l47
48 -59 -22 c-87 -32 -278 -32 -387 -1 -147 43 -296 123 -464 249 -52 39 -82
55 -115 59 -24 3 -58 8 -76 11 -29 4 -32 2 -44 -33z"/>
</g>
</svg>
